<svg id="visual" viewBox="0 0 540 960" width="540" height="960" xmlns="http://www.w3.org/2000/svg" xmlns:xlink="http://www.w3.org/1999/xlink" version="1.1"><rect x="0" y="0" width="540" height="960" fill="#fff"></rect><defs><linearGradient id="grad1_0" x1="0%" y1="100%" x2="100%" y2="0%"><stop offset="30%" stop-color="#0ca4a5" stop-opacity="1"></stop><stop offset="70%" stop-color="#0ca4a5" stop-opacity="1"></stop></linearGradient></defs><defs><linearGradient id="grad1_1" x1="0%" y1="100%" x2="100%" y2="0%"><stop offset="30%" stop-color="#0ca4a5" stop-opacity="1"></stop><stop offset="70%" stop-color="#9dd2d1" stop-opacity="1"></stop></linearGradient></defs><defs><linearGradient id="grad1_2" x1="0%" y1="100%" x2="100%" y2="0%"><stop offset="30%" stop-color="#ffffff" stop-opacity="1"></stop><stop offset="70%" stop-color="#9dd2d1" stop-opacity="1"></stop></linearGradient></defs><defs><linearGradient id="grad2_0" x1="0%" y1="100%" x2="100%" y2="0%"><stop offset="30%" stop-color="#0ca4a5" stop-opacity="1"></stop><stop offset="70%" stop-color="#0ca4a5" stop-opacity="1"></stop></linearGradient></defs><defs><linearGradient id="grad2_1" x1="0%" y1="100%" x2="100%" y2="0%"><stop offset="30%" stop-color="#9dd2d1" stop-opacity="1"></stop><stop offset="70%" stop-color="#0ca4a5" stop-opacity="1"></stop></linearGradient></defs><defs><linearGradient id="grad2_2" x1="0%" y1="100%" x2="100%" y2="0%"><stop offset="30%" stop-color="#9dd2d1" stop-opacity="1"></stop><stop offset="70%" stop-color="#ffffff" stop-opacity="1"></stop></linearGradient></defs><g transform="translate(540, 960)"><path d="M-378 0C-350.3 -39.8 -322.5 -79.6 -308.6 -127.8C-294.6 -176 -294.5 -232.5 -267.3 -267.3C-240 -302 -185.7 -315 -136.6 -329.8C-87.6 -344.6 -43.8 -361.3 0 -378L0 0Z" fill="#cfe8e8"></path><path d="M-252 0C-233.5 -26.5 -215 -53.1 -205.7 -85.2C-196.4 -117.3 -196.4 -155 -178.2 -178.2C-160 -201.4 -123.8 -210 -91.1 -219.9C-58.4 -229.8 -29.2 -240.9 0 -252L0 0Z" fill="#67bbbb"></path><path d="M-126 0C-116.8 -13.3 -107.5 -26.5 -102.9 -42.6C-98.2 -58.7 -98.2 -77.5 -89.1 -89.1C-80 -100.7 -61.9 -105 -45.5 -109.9C-29.2 -114.9 -14.6 -120.4 0 -126L0 0Z" fill="#0ca4a5"></path></g><g transform="translate(0, 0)"><path d="M378 0C370.3 50.7 362.6 101.4 339.1 140.4C315.5 179.5 276.1 206.8 243.2 243.2C210.4 279.7 184.1 325.2 144.7 349.2C105.2 373.2 52.6 375.6 0 378L0 0Z" fill="#cfe8e8"></path><path d="M252 0C246.9 33.8 241.7 67.6 226 93.6C210.3 119.6 184.1 137.9 162.2 162.2C140.3 186.5 122.7 216.8 96.4 232.8C70.1 248.8 35.1 250.4 0 252L0 0Z" fill="#67bbbb"></path><path d="M126 0C123.4 16.9 120.9 33.8 113 46.8C105.2 59.8 92 68.9 81.1 81.1C70.1 93.2 61.4 108.4 48.2 116.4C35.1 124.4 17.5 125.2 0 126L0 0Z" fill="#0ca4a5"></path></g></svg>